<svg width="1949" height="1900" viewBox="0 0 1949 1900" fill="none" xmlns="http://www.w3.org/2000/svg">
<rect x="1" width="1947" height="593" fill="#517652"/>
<rect x="1" y="705" width="1948" height="688" fill="#E0E0E0"/>
<path fill-rule="evenodd" clip-rule="evenodd" d="M0 1212L78.9167 1186.63C157.833 1161.26 315.667 1110.51 473.5 1105.44C631.333 1100.36 789.167 1140.96 947 1148.57C1104.83 1156.18 1262.67 1130.81 1420.5 1123.2C1578.33 1115.59 1736.17 1125.74 1815.08 1130.81L1946.58 1135.88V1212H1815.08C1736.17 1212 1578.33 1212 1420.5 1212C1262.67 1212 1104.83 1212 947 1212C789.167 1212 631.333 1212 473.5 1212C315.667 1212 157.833 1212 78.9167 1212H0Z" fill="#C7E3C8"/>
<rect x="1" y="1212" width="1948" height="688" fill="#C7E3C8"/>
<path fill-rule="evenodd" clip-rule="evenodd" d="M1947.23 756.756L1891.37 766.146C1836.16 776.878 1724.44 797 1613.37 797C1501.65 797 1390.58 776.878 1278.86 766.146C1167.79 756.756 1056.07 756.756 1000.86 756.756H945V632H1000.86C1056.07 632 1167.79 632 1278.86 632C1390.58 632 1501.65 632 1613.37 632C1724.44 632 1836.16 632 1891.37 632H1947.23V756.756Z" fill="#C7E3C8"/>
<path fill-rule="evenodd" clip-rule="evenodd" d="M0 719.39L108.573 730.033C215.883 742.195 433.029 765 648.913 765C866.058 765 1081.94 742.195 1299.09 730.033C1514.97 719.39 1732.12 719.39 1839.43 719.39H1948V578H1839.43C1732.12 578 1514.97 578 1299.09 578C1081.94 578 866.058 578 648.913 578C433.029 578 215.883 578 108.573 578H0V719.39Z" fill="#517652"/>
</svg>
