<svg width="2252" height="2977" viewBox="0 0 2252 2977" fill="none" xmlns="http://www.w3.org/2000/svg">
<g clip-path="url(#clip0_8277_1848)">
<rect width="2252" height="2977" fill="#FFFCF7"/>
<path d="M102.957 73.3537C102.095 73.3537 101.342 73.2017 100.696 72.8977C100.05 72.5937 99.5431 72.182 99.1758 71.6627C98.8211 71.1434 98.6185 70.567 98.5678 69.9337H99.4608C99.5621 70.6304 99.8851 71.251 100.43 71.7957C100.987 72.3404 101.829 72.6127 102.957 72.6127C103.615 72.6127 104.185 72.4924 104.667 72.2517C105.161 72.011 105.541 71.6817 105.807 71.2637C106.073 70.8457 106.206 70.3834 106.206 69.8767C106.206 69.2307 106.047 68.7177 105.731 68.3377C105.427 67.9577 105.04 67.6727 104.572 67.4827C104.116 67.2927 103.495 67.09 102.71 66.8747C101.848 66.6467 101.152 66.4187 100.62 66.1907C100.1 65.9627 99.6571 65.6144 99.2898 65.1457C98.9351 64.6644 98.7578 64.012 98.7578 63.1887C98.7578 62.5554 98.9225 61.979 99.2518 61.4597C99.5938 60.9277 100.075 60.5097 100.696 60.2057C101.316 59.9017 102.032 59.7497 102.843 59.7497C104.021 59.7497 104.971 60.041 105.693 60.6237C106.415 61.2064 106.845 61.922 106.985 62.7707H106.073C105.997 62.4287 105.826 62.0804 105.56 61.7257C105.306 61.371 104.939 61.0797 104.458 60.8517C103.989 60.611 103.425 60.4907 102.767 60.4907C101.88 60.4907 101.133 60.7377 100.525 61.2317C99.9168 61.713 99.6128 62.359 99.6128 63.1697C99.6128 63.8157 99.7711 64.335 100.088 64.7277C100.404 65.1077 100.791 65.399 101.247 65.6017C101.715 65.7917 102.342 65.988 103.128 66.1907C104.002 66.4314 104.692 66.6657 105.199 66.8937C105.718 67.109 106.155 67.4574 106.51 67.9387C106.877 68.4074 107.061 69.047 107.061 69.8577C107.061 70.453 106.902 71.0167 106.586 71.5487C106.269 72.0807 105.8 72.5177 105.18 72.8597C104.572 73.189 103.831 73.3537 102.957 73.3537ZM118.911 67.3687C118.911 67.8247 118.899 68.1667 118.873 68.3947H109.962C109.988 69.3194 110.19 70.0984 110.57 70.7317C110.95 71.365 111.451 71.84 112.071 72.1567C112.692 72.4734 113.37 72.6317 114.104 72.6317C115.118 72.6317 115.966 72.3847 116.65 71.8907C117.334 71.384 117.765 70.7 117.942 69.8387H118.835C118.633 70.89 118.113 71.745 117.277 72.4037C116.441 73.0497 115.384 73.3727 114.104 73.3727C113.142 73.3727 112.28 73.1574 111.52 72.7267C110.76 72.296 110.165 71.6817 109.734 70.8837C109.304 70.073 109.088 69.1294 109.088 68.0527C109.088 66.976 109.297 66.0387 109.715 65.2407C110.146 64.4427 110.741 63.8347 111.501 63.4167C112.261 62.986 113.129 62.7707 114.104 62.7707C115.092 62.7707 115.947 62.986 116.669 63.4167C117.404 63.8347 117.961 64.3984 118.341 65.1077C118.721 65.8044 118.911 66.558 118.911 67.3687ZM118.056 67.6917C118.094 66.7797 117.93 66.007 117.562 65.3737C117.208 64.7404 116.72 64.2717 116.099 63.9677C115.479 63.651 114.807 63.4927 114.085 63.4927C113.363 63.4927 112.692 63.651 112.071 63.9677C111.463 64.2717 110.963 64.7404 110.57 65.3737C110.19 66.007 109.988 66.7797 109.962 67.6917H118.056ZM120.963 68.0527C120.963 66.976 121.172 66.0387 121.59 65.2407C122.021 64.4427 122.61 63.8347 123.357 63.4167C124.117 62.986 124.985 62.7707 125.96 62.7707C127.252 62.7707 128.31 63.0937 129.133 63.7397C129.969 64.3857 130.489 65.2534 130.691 66.3427H129.798C129.634 65.456 129.203 64.7594 128.506 64.2527C127.822 63.746 126.974 63.4927 125.96 63.4927C125.2 63.4927 124.51 63.6637 123.889 64.0057C123.269 64.335 122.768 64.848 122.388 65.5447C122.021 66.2287 121.837 67.0647 121.837 68.0527C121.837 69.0534 122.021 69.8957 122.388 70.5797C122.768 71.2637 123.269 71.7767 123.889 72.1187C124.51 72.4607 125.2 72.6317 125.96 72.6317C126.974 72.6317 127.822 72.3784 128.506 71.8717C129.203 71.365 129.634 70.6684 129.798 69.7817H130.691C130.489 70.8584 129.969 71.726 129.133 72.3847C128.297 73.0434 127.24 73.3727 125.96 73.3727C124.985 73.3727 124.117 73.1574 123.357 72.7267C122.61 72.296 122.021 71.6817 121.59 70.8837C121.172 70.073 120.963 69.1294 120.963 68.0527ZM137.837 73.3727C136.874 73.3727 136.007 73.1574 135.234 72.7267C134.461 72.296 133.853 71.6817 133.41 70.8837C132.979 70.073 132.764 69.1294 132.764 68.0527C132.764 66.9887 132.986 66.0577 133.429 65.2597C133.872 64.449 134.48 63.8347 135.253 63.4167C136.038 62.986 136.912 62.7707 137.875 62.7707C138.838 62.7707 139.705 62.986 140.478 63.4167C141.251 63.8347 141.852 64.4427 142.283 65.2407C142.726 66.0387 142.948 66.976 142.948 68.0527C142.948 69.1294 142.726 70.073 142.283 70.8837C141.84 71.6817 141.225 72.296 140.44 72.7267C139.667 73.1574 138.8 73.3727 137.837 73.3727ZM137.837 72.6127C138.584 72.6127 139.281 72.448 139.927 72.1187C140.586 71.7767 141.111 71.2637 141.504 70.5797C141.897 69.8957 142.093 69.0534 142.093 68.0527C142.093 67.0647 141.897 66.2287 141.504 65.5447C141.111 64.8607 140.592 64.354 139.946 64.0247C139.3 63.6827 138.603 63.5117 137.856 63.5117C137.109 63.5117 136.412 63.6827 135.766 64.0247C135.133 64.354 134.62 64.8607 134.227 65.5447C133.834 66.2287 133.638 67.0647 133.638 68.0527C133.638 69.0534 133.828 69.8957 134.208 70.5797C134.601 71.2637 135.114 71.7767 135.747 72.1187C136.393 72.448 137.09 72.6127 137.837 72.6127ZM150.197 62.6947C151.426 62.6947 152.427 63.0747 153.199 63.8347C153.972 64.582 154.358 65.6967 154.358 67.1787V73.2207H153.522V67.2357C153.522 66.007 153.212 65.0697 152.591 64.4237C151.971 63.765 151.128 63.4357 150.064 63.4357C148.95 63.4357 148.057 63.7904 147.385 64.4997C146.727 65.209 146.397 66.2604 146.397 67.6537V73.2207H145.542V62.9037H146.397V65.0887C146.689 64.316 147.17 63.727 147.841 63.3217C148.525 62.9037 149.311 62.6947 150.197 62.6947ZM156.848 68.0527C156.848 66.9887 157.057 66.0577 157.475 65.2597C157.906 64.4617 158.495 63.8474 159.242 63.4167C160.002 62.986 160.863 62.7707 161.826 62.7707C162.877 62.7707 163.789 63.0367 164.562 63.5687C165.335 64.088 165.879 64.7657 166.196 65.6017V59.1607H167.051V73.2207H166.196V70.4847C165.892 71.3334 165.36 72.03 164.6 72.5747C163.84 73.1067 162.915 73.3727 161.826 73.3727C160.863 73.3727 160.002 73.1574 159.242 72.7267C158.495 72.2834 157.906 71.6627 157.475 70.8647C157.057 70.054 156.848 69.1167 156.848 68.0527ZM166.196 68.0527C166.196 67.1534 166.006 66.3617 165.626 65.6777C165.259 64.981 164.752 64.449 164.106 64.0817C163.46 63.7017 162.738 63.5117 161.94 63.5117C161.104 63.5117 160.369 63.6954 159.736 64.0627C159.103 64.4174 158.609 64.9367 158.254 65.6207C157.899 66.3047 157.722 67.1154 157.722 68.0527C157.722 68.99 157.899 69.8007 158.254 70.4847C158.609 71.1687 159.103 71.6944 159.736 72.0617C160.382 72.429 161.117 72.6127 161.94 72.6127C162.738 72.6127 163.46 72.429 164.106 72.0617C164.765 71.6817 165.278 71.1497 165.645 70.4657C166.012 69.769 166.196 68.9647 166.196 68.0527ZM182.899 59.8827V60.6047H179.099V73.2207H178.244V60.6047H174.444V59.8827H182.899ZM185.371 60.6047C185.168 60.6047 184.997 60.5414 184.858 60.4147C184.718 60.2754 184.649 60.0917 184.649 59.8637C184.649 59.6484 184.718 59.471 184.858 59.3317C184.997 59.1924 185.168 59.1227 185.371 59.1227C185.573 59.1227 185.744 59.1924 185.884 59.3317C186.023 59.471 186.093 59.6484 186.093 59.8637C186.093 60.0917 186.023 60.2754 185.884 60.4147C185.744 60.5414 185.573 60.6047 185.371 60.6047ZM185.789 62.9037V73.2207H184.934V62.9037H185.789ZM201.121 62.6947C202.299 62.6947 203.262 63.0747 204.009 63.8347C204.756 64.582 205.13 65.6967 205.13 67.1787V73.2207H204.294V67.2357C204.294 66.007 203.996 65.0697 203.401 64.4237C202.818 63.765 202.014 63.4357 200.988 63.4357C199.924 63.4357 199.069 63.803 198.423 64.5377C197.777 65.2724 197.454 66.3364 197.454 67.7297V73.2207H196.618V67.2357C196.618 66.007 196.32 65.0697 195.725 64.4237C195.142 63.765 194.338 63.4357 193.312 63.4357C192.248 63.4357 191.393 63.803 190.747 64.5377C190.101 65.2724 189.778 66.3364 189.778 67.7297V73.2207H188.923V62.9037H189.778V65.1457C190.069 64.335 190.538 63.727 191.184 63.3217C191.843 62.9037 192.596 62.6947 193.445 62.6947C194.382 62.6947 195.187 62.9417 195.858 63.4357C196.542 63.917 197.011 64.6327 197.264 65.5827C197.505 64.6327 197.973 63.917 198.67 63.4357C199.367 62.9417 200.184 62.6947 201.121 62.6947ZM217.455 67.3687C217.455 67.8247 217.443 68.1667 217.417 68.3947H208.506C208.532 69.3194 208.734 70.0984 209.114 70.7317C209.494 71.365 209.995 71.84 210.615 72.1567C211.236 72.4734 211.914 72.6317 212.648 72.6317C213.662 72.6317 214.51 72.3847 215.194 71.8907C215.878 71.384 216.309 70.7 216.486 69.8387H217.379C217.177 70.89 216.657 71.745 215.821 72.4037C214.985 73.0497 213.928 73.3727 212.648 73.3727C211.686 73.3727 210.824 73.1574 210.064 72.7267C209.304 72.296 208.709 71.6817 208.278 70.8837C207.848 70.073 207.632 69.1294 207.632 68.0527C207.632 66.976 207.841 66.0387 208.259 65.2407C208.69 64.4427 209.285 63.8347 210.045 63.4167C210.805 62.986 211.673 62.7707 212.648 62.7707C213.636 62.7707 214.491 62.986 215.213 63.4167C215.948 63.8347 216.505 64.3984 216.885 65.1077C217.265 65.8044 217.455 66.558 217.455 67.3687ZM216.6 67.6917C216.638 66.7797 216.474 66.007 216.106 65.3737C215.752 64.7404 215.264 64.2717 214.643 63.9677C214.023 63.651 213.351 63.4927 212.629 63.4927C211.907 63.4927 211.236 63.651 210.615 63.9677C210.007 64.2717 209.507 64.7404 209.114 65.3737C208.734 66.007 208.532 66.7797 208.506 67.6917H216.6ZM232.964 69.8007H226.637L225.364 73.2207H224.433L229.335 60.1867H230.285L235.168 73.2207H234.237L232.964 69.8007ZM232.698 69.0787L229.81 61.3077L226.903 69.0787H232.698ZM238.169 65.0317C238.422 64.2717 238.872 63.6954 239.518 63.3027C240.164 62.8974 240.987 62.6947 241.988 62.6947V63.5877H241.703C240.689 63.5877 239.847 63.879 239.176 64.4617C238.504 65.0317 238.169 65.969 238.169 67.2737V73.2207H237.314V62.9037H238.169V65.0317ZM248.497 73.3727C247.535 73.3727 246.667 73.1574 245.894 72.7267C245.122 72.296 244.514 71.6817 244.07 70.8837C243.64 70.073 243.424 69.1294 243.424 68.0527C243.424 66.9887 243.646 66.0577 244.089 65.2597C244.533 64.449 245.141 63.8347 245.913 63.4167C246.699 62.986 247.573 62.7707 248.535 62.7707C249.498 62.7707 250.366 62.986 251.138 63.4167C251.911 63.8347 252.513 64.4427 252.943 65.2407C253.387 66.0387 253.608 66.976 253.608 68.0527C253.608 69.1294 253.387 70.073 252.943 70.8837C252.5 71.6817 251.886 72.296 251.1 72.7267C250.328 73.1574 249.46 73.3727 248.497 73.3727ZM248.497 72.6127C249.245 72.6127 249.941 72.448 250.587 72.1187C251.246 71.7767 251.772 71.2637 252.164 70.5797C252.557 69.8957 252.753 69.0534 252.753 68.0527C252.753 67.0647 252.557 66.2287 252.164 65.5447C251.772 64.8607 251.252 64.354 250.606 64.0247C249.96 63.6827 249.264 63.5117 248.516 63.5117C247.769 63.5117 247.072 63.6827 246.426 64.0247C245.793 64.354 245.28 64.8607 244.887 65.5447C244.495 66.2287 244.298 67.0647 244.298 68.0527C244.298 69.0534 244.488 69.8957 244.868 70.5797C245.261 71.2637 245.774 71.7767 246.407 72.1187C247.053 72.448 247.75 72.6127 248.497 72.6127ZM264.923 62.9037V73.2207H264.068V70.9787C263.777 71.764 263.289 72.3657 262.605 72.7837C261.934 73.189 261.161 73.3917 260.287 73.3917C259.059 73.3917 258.052 73.018 257.266 72.2707C256.494 71.5107 256.107 70.3897 256.107 68.9077V62.9037H256.943V68.8507C256.943 70.0794 257.254 71.023 257.874 71.6817C258.495 72.3277 259.337 72.6507 260.401 72.6507C261.516 72.6507 262.403 72.296 263.061 71.5867C263.733 70.8774 264.068 69.826 264.068 68.4327V62.9037H264.923ZM272.695 62.6947C273.924 62.6947 274.925 63.0747 275.697 63.8347C276.47 64.582 276.856 65.6967 276.856 67.1787V73.2207H276.02V67.2357C276.02 66.007 275.71 65.0697 275.089 64.4237C274.469 63.765 273.626 63.4357 272.562 63.4357C271.448 63.4357 270.555 63.7904 269.883 64.4997C269.225 65.209 268.895 66.2604 268.895 67.6537V73.2207H268.04V62.9037H268.895V65.0887C269.187 64.316 269.668 63.727 270.339 63.3217C271.023 62.9037 271.809 62.6947 272.695 62.6947ZM279.346 68.0527C279.346 66.9887 279.555 66.0577 279.973 65.2597C280.404 64.4617 280.993 63.8474 281.74 63.4167C282.5 62.986 283.361 62.7707 284.324 62.7707C285.375 62.7707 286.287 63.0367 287.06 63.5687C287.833 64.088 288.377 64.7657 288.694 65.6017V59.1607H289.549V73.2207H288.694V70.4847C288.39 71.3334 287.858 72.03 287.098 72.5747C286.338 73.1067 285.413 73.3727 284.324 73.3727C283.361 73.3727 282.5 73.1574 281.74 72.7267C280.993 72.2834 280.404 71.6627 279.973 70.8647C279.555 70.054 279.346 69.1167 279.346 68.0527ZM288.694 68.0527C288.694 67.1534 288.504 66.3617 288.124 65.6777C287.757 64.981 287.25 64.449 286.604 64.0817C285.958 63.7017 285.236 63.5117 284.438 63.5117C283.602 63.5117 282.867 63.6954 282.234 64.0627C281.601 64.4174 281.107 64.9367 280.752 65.6207C280.397 66.3047 280.22 67.1154 280.22 68.0527C280.22 68.99 280.397 69.8007 280.752 70.4847C281.107 71.1687 281.601 71.6944 282.234 72.0617C282.88 72.429 283.615 72.6127 284.438 72.6127C285.236 72.6127 285.958 72.429 286.604 72.0617C287.263 71.6817 287.776 71.1497 288.143 70.4657C288.51 69.769 288.694 68.9647 288.694 68.0527Z" fill="white"/>
<path fill-rule="evenodd" clip-rule="evenodd" d="M2252 910.561L2164.38 925.13C2077.79 941.78 1902.55 973 1728.34 973C1553.11 973 1378.89 941.78 1203.66 925.13C1029.45 910.561 854.214 910.561 767.616 910.561H680V717H767.616C854.214 717 1029.45 717 1203.66 717C1378.89 717 1553.11 717 1728.34 717C1902.55 717 2077.79 717 2164.38 717H2252V910.561Z" fill="#7FB378"/>
<path fill-rule="evenodd" clip-rule="evenodd" d="M-29 880.317L98.1329 892.61C223.787 906.659 478.053 933 730.841 933C985.106 933 1237.89 906.659 1492.16 892.61C1744.95 880.317 1999.21 880.317 2124.87 880.317H2252V717H2124.87C1999.21 717 1744.95 717 1492.16 717C1237.89 717 985.106 717 730.841 717C478.053 717 223.787 717 98.1329 717H-29V880.317Z" fill="#CBE0B1"/>
<g filter="url(#filter0_d_8277_1848)">
<rect x="-247" y="2048" width="2499" height="950" fill="#FEE5BD"/>
<rect x="-246.5" y="2048.5" width="2498" height="949" stroke="black"/>
</g>
<path fill-rule="evenodd" clip-rule="evenodd" d="M-179 2104L-77.7083 2068.91C23.5833 2033.81 226.167 1963.62 428.75 1956.61C631.333 1949.59 833.917 2005.74 1036.5 2016.26C1239.08 2026.79 1441.67 1991.7 1644.25 1981.17C1846.83 1970.64 2049.42 1984.68 2150.71 1991.7L2252 1998.72V2104H2150.71C2049.42 2104 1846.83 2104 1644.25 2104C1441.67 2104 1239.08 2104 1036.5 2104C833.917 2104 631.333 2104 428.75 2104C226.167 2104 23.5833 2104 -77.7083 2104H-179Z" fill="#FEE5BD"/>
<rect x="-2" y="-67" width="2254" height="877" fill="#CBE0B1"/>
</g>
<defs>
<filter id="filter0_d_8277_1848" x="-251" y="2048" width="2507" height="958" filterUnits="userSpaceOnUse" color-interpolation-filters="sRGB">
<feFlood flood-opacity="0" result="BackgroundImageFix"/>
<feColorMatrix in="SourceAlpha" type="matrix" values="0 0 0 0 0 0 0 0 0 0 0 0 0 0 0 0 0 0 127 0" result="hardAlpha"/>
<feOffset dy="4"/>
<feGaussianBlur stdDeviation="2"/>
<feComposite in2="hardAlpha" operator="out"/>
<feColorMatrix type="matrix" values="0 0 0 0 0 0 0 0 0 0 0 0 0 0 0 0 0 0 0.25 0"/>
<feBlend mode="normal" in2="BackgroundImageFix" result="effect1_dropShadow_8277_1848"/>
<feBlend mode="normal" in="SourceGraphic" in2="effect1_dropShadow_8277_1848" result="shape"/>
</filter>
<clipPath id="clip0_8277_1848">
<rect width="2252" height="2977" fill="white"/>
</clipPath>
</defs>
</svg>
